HIERARCHY
ROOT hip
{
	OFFSET 0.000000 0.000000 0.000000 
	CHANNELS 6 Xposition Yposition Zposition Xrotation Zrotation Yrotation
	JOINT abdomen
	{
		OFFSET 0.000000 3.402643 0.000000 
		CHANNELS 3 Xrotation Zrotation Yrotation
		JOINT chest
		{
			OFFSET 0.000000 8.438565 -0.680529 
			CHANNELS 3 Xrotation Zrotation Yrotation
			JOINT neck
			{
				OFFSET 0.000000 10.207942 -0.272212 
				CHANNELS 3 Xrotation Zrotation Yrotation
				JOINT head
				{
					OFFSET 0.000000 3.130431 0.000000 
					CHANNELS 3 Xrotation Zrotation Yrotation
					End Site
					{
						OFFSET 0.000000 3.130435 0.000000 
					}
				}
			}
			JOINT lCollar
			{
				OFFSET 3.470700 6.669187 -0.816635 
				CHANNELS 3 Yrotation Zrotation Xrotation
				JOINT lShldr
				{
					OFFSET 3.198488 0.000000 0.000000 
					CHANNELS 3 Zrotation Yrotation Xrotation
					JOINT lForeArm
					{
						OFFSET 10.139888 0.000000 0.000000 
						CHANNELS 3 Yrotation Zrotation Xrotation
						JOINT lHand
						{
							OFFSET 8.370511 0.000000 0.000000 
							CHANNELS 3 Zrotation Yrotation Xrotation
							End Site
							{
								OFFSET 4.083176 0.000000 0.000000 
							}
						}
					}
				}
			}
			JOINT rCollar
			{
				OFFSET -3.470700 6.669187 -0.816635 
				CHANNELS 3 Yrotation Zrotation Xrotation
				JOINT rShldr
				{
					OFFSET -3.198488 0.000000 0.000000 
					CHANNELS 3 Zrotation Yrotation Xrotation
					JOINT rForeArm
					{
						OFFSET -10.139888 0.000000 0.000000 
						CHANNELS 3 Yrotation Zrotation Xrotation
						JOINT rHand
						{
							OFFSET -8.370511 0.000000 0.000000 
							CHANNELS 3 Zrotation Yrotation Xrotation
							End Site
							{
								OFFSET -4.083176 0.000000 0.000000 
							}
						}
					}
				}
			}
		}
	}
	JOINT lThigh
	{
		OFFSET 5.308129 -1.633274 1.361059 
		CHANNELS 3 Xrotation Zrotation Yrotation
		JOINT lShin
		{
			OFFSET -2.041588 -20.007561 0.000000 
			CHANNELS 3 Xrotation Zrotation Yrotation
			JOINT lFoot
			{
				OFFSET 0.000000 -19.190928 -1.224953 
				CHANNELS 3 Xrotation Yrotation Zrotation
				End Site
				{
					OFFSET 0.000000 -2.449906 4.627600 
				}
			}
		}
	}
	JOINT rThigh
	{
		OFFSET -5.308129 -1.633274 1.361059 
		CHANNELS 3 Xrotation Zrotation Yrotation
		JOINT rShin
		{
			OFFSET 2.041588 -20.007561 0.000000 
			CHANNELS 3 Xrotation Zrotation Yrotation
			JOINT rFoot
			{
				OFFSET 0.000000 -19.190928 -1.224953 
				CHANNELS 3 Xrotation Yrotation Zrotation
				End Site
				{
					OFFSET 0.000000 -2.449906 4.627600 
				}
			}
		}
	}
}
MOTION
Frames: 10
Frame Time: 0.033333
-0.168226 49.555584 -3.082081 -4.502380 0.788575 -0.433181 0.000000 0.000000 0.000000 -0.634805 -0.634727 0.075392 2.431844 -0.679537 0.030968 5.400388 -0.078003 0.189912 0.255810 10.949232 -3.294738 1.389163 5.917639 -26.385340 -9.065459 -2.290992 2.564445 -4.450659 -5.569252 -4.866711 -0.606660 -10.017586 -3.106202 -0.917609 -6.063956 -13.688196 1.340759 5.280286 2.696501 -15.082922 3.892768 -5.665995 3.669890 7.341930 1.835628 8.630960 -3.225196 17.493124 -5.650102 0.188375 -3.887686 4.029472 -10.559594 -5.530076 7.322299 2.742101 1.506526 -4.213420 -0.242492 6.739443 
-0.160674 49.551937 -3.064389 -4.443770 0.778902 -0.451149 0.000000 0.000000 0.000000 -0.683636 -0.634720 0.075932 2.539146 -0.489718 0.023029 5.165968 -0.302190 0.320886 0.207625 11.138474 -3.359736 1.397057 6.205935 -25.879391 -9.118855 -2.528723 2.578342 -4.057357 -5.577182 -5.273026 -0.569983 -10.019417 -3.186326 -0.885741 -6.160667 -13.836823 1.309088 5.144717 2.689179 -14.531812 4.138570 -5.378831 3.561799 7.368984 1.898268 8.745656 -3.318936 17.361921 -5.748067 0.211686 -3.846679 3.932562 -10.580698 -5.539672 7.442854 2.769226 1.671600 -4.291342 -0.237863 6.721782 
-0.172503 49.559864 -3.054206 -4.424179 0.720503 -0.514724 0.000000 0.000000 0.000000 -0.722701 -0.634715 0.086131 2.558712 -0.470302 0.142998 5.234365 -0.136482 0.369363 0.275593 11.193455 -3.421490 1.577995 6.315943 -25.588251 -9.131896 -2.700156 2.592111 -3.916489 -5.637934 -5.819013 -0.563310 -10.166596 -3.231680 -0.694608 -6.178436 -14.129657 1.295952 4.950208 2.681539 -14.548795 3.833798 -4.851199 3.892950 7.416011 1.910759 8.094151 -3.223502 17.471338 -5.425691 0.194120 -4.042111 3.933136 -10.463575 -5.389166 7.365149 2.710875 1.498272 -4.209826 -0.231594 6.733335 
-0.156142 49.559734 -3.032461 -4.433965 0.739966 -0.526122 0.000000 0.000000 0.000000 -0.732466 -0.624949 0.105645 2.578252 -0.429940 0.083558 5.478487 -0.243778 0.335575 0.296376 11.280348 -3.437344 1.457464 6.314254 -25.779797 -9.129083 -2.556929 2.583804 -4.004086 -5.652511 -5.617998 -0.595574 -10.174725 -3.261414 -0.623198 -6.007402 -14.875664 0.957652 4.597885 2.652253 -14.606339 4.084193 -4.297600 3.647220 7.414077 1.951751 8.638612 -3.330660 17.495468 -5.705497 0.194827 -3.842900 3.864884 -10.513791 -5.452016 7.604196 2.731863 1.591820 -4.290176 -0.239863 6.731499 
-0.158912 49.557224 -3.029719 -4.463274 0.749673 -0.546792 0.000000 0.000000 0.000000 -0.712934 -0.634717 0.105554 2.734519 -0.462975 0.117246 5.224601 -0.126732 0.349279 0.330160 11.395640 -3.422991 1.369189 6.314362 -25.784313 -9.099317 -2.529131 2.578718 -3.939312 -5.580502 -5.583368 -0.608302 -10.125113 -3.245724 -0.969637 -6.031957 -14.085308 0.935865 5.065309 2.684585 -15.210061 4.020552 -5.085811 3.747967 7.408745 1.979863 8.529948 -3.327632 17.424992 -5.682101 0.197492 -3.884080 3.971000 -10.519944 -5.465240 7.409111 2.732148 1.511491 -4.240376 -0.231947 6.744384 
-0.159918 49.569935 -3.030084 -4.385104 0.710804 -0.493955 0.000000 0.000000 0.000000 -0.703162 -0.585893 0.114612 2.470829 -0.545583 0.110707 5.644528 0.078021 0.240108 0.540212 11.295055 -3.442860 1.433611 5.989392 -26.042274 -8.980712 -2.455395 2.572209 -3.795136 -5.523687 -5.514730 -0.813909 -10.240953 -3.266386 -0.872056 -5.983403 -14.060715 0.916788 5.094949 2.685927 -15.174155 4.199434 -5.045308 3.719799 7.391829 1.909125 8.415412 -3.271316 17.426857 -5.604994 0.186489 -3.834772 3.856514 -10.507583 -5.421291 7.531901 2.720984 1.704058 -4.200092 -0.237878 6.741078 
-0.156522 49.556721 -3.021992 -4.463315 0.788617 -0.549831 0.000000 0.000000 0.000000 -0.693410 -0.693309 0.086515 2.705220 -0.525059 0.127978 5.615231 0.087771 0.327449 0.367115 11.207671 -3.422760 1.778694 6.097502 -25.907564 -8.592672 -2.597764 2.580894 -3.814178 -5.534514 -5.415811 -0.609214 -10.330136 -3.227748 -0.815893 -6.043078 -13.907897 0.585789 5.199620 2.688571 -15.403142 4.642882 -4.793056 3.738643 7.390316 2.017571 8.543171 -3.350368 17.481508 -5.655354 0.197776 -3.851673 3.953742 -10.565351 -5.498781 7.442586 2.769143 1.681345 -4.303241 -0.239459 6.668404 
-0.172755 49.560120 -3.022293 -4.463264 0.739937 -0.526501 0.000000 0.000000 0.000000 -0.693409 -0.683544 0.066866 2.841888 -0.496334 0.112388 5.429688 0.019501 0.350481 0.284583 11.007153 -3.410745 2.024777 6.244058 -25.847643 -8.749452 -2.622940 2.583548 -3.670562 -5.467929 -5.767073 -0.530012 -10.393084 -3.202513 -0.759074 -6.141547 -13.794400 0.908990 5.221464 2.695886 -15.086499 3.941465 -5.343724 3.804431 7.435473 1.992282 8.423095 -3.328193 17.451920 -5.620654 0.194818 -3.895169 3.961892 -10.502362 -5.463127 7.443640 2.749944 1.534169 -4.254124 -0.245136 6.707379 
-0.150103 49.564648 -3.017989 -4.473050 0.759399 -0.528150 0.000000 0.000000 0.000000 -0.664105 -0.644488 0.085595 2.822434 -0.585647 0.094416 5.468750 0.019502 0.252838 0.280210 10.919015 -3.373143 2.141395 6.106546 -25.898849 -8.496820 -2.686339 2.580864 -3.778851 -5.640158 -5.477265 -0.506488 -10.433760 -3.165354 -0.481058 -6.126668 -14.590064 0.823317 4.756543 2.660578 -15.029165 4.229619 -4.658073 3.885677 7.353449 1.924078 8.264848 -3.306635 17.561567 -5.552300 0.192160 -3.874270 3.962306 -10.591117 -5.551271 7.500757 2.769156 1.821522 -4.237749 -0.238945 6.720258 
-0.166713 49.558598 -3.026899 -4.473001 0.710720 -0.504811 0.000000 0.000000 0.000000 -0.644571 -0.634725 0.075500 2.851794 -0.646612 0.114921 5.361308 0.204750 0.213011 0.306448 10.897517 -3.313779 2.132914 6.097677 -25.811377 -8.585213 -2.712938 2.584856 -3.683637 -5.586016 -5.677933 -0.461318 -10.504534 -3.098515 -0.442596 -6.404334 -13.968470 1.198588 4.972101 2.677760 -15.134317 3.791090 -5.462821 3.804399 7.404943 1.920166 8.454782 -3.261928 17.502827 -5.646231 0.194077 -3.938338 4.029010 -10.499284 -5.494262 7.383823 2.739625 1.569058 -4.236357 -0.228786 6.756279 
